<svg width="18" height="24" viewBox="0 0 18 24" fill="none" xmlns="http://www.w3.org/2000/svg">
<path d="M16.2253 9.89118V7.03713C16.2618 6.12561 16.1018 5.21657 15.7551 4.36438C15.4084 3.51218 14.882 2.73435 14.2075 2.07739C13.533 1.42043 12.7242 0.897857 11.8294 0.540915C10.9346 0.183973 9.9723 0 9 0C8.0277 0 7.06538 0.183973 6.17061 0.540915C5.27585 0.897857 4.46701 1.42043 3.79248 2.07739C3.11795 2.73435 2.59159 3.51218 2.24488 4.36438C1.89818 5.21657 1.73824 6.12561 1.77465 7.03713V9.89118C1.23376 10.1984 0.78634 10.6311 0.475508 11.1477C0.164676 11.6642 0.000912712 12.2472 1.43203e-08 12.8404V21.3074C-3.79766e-05 21.6642 0.0755152 22.0174 0.222269 22.3466C0.369023 22.6757 0.58405 22.9742 0.854852 23.2247C1.12565 23.4753 1.44683 23.6728 1.79971 23.8058C2.1526 23.9389 2.53015 24.0048 2.91042 23.9997H7.27099C7.53994 23.9997 7.79787 23.8995 7.98805 23.7211C8.17823 23.5427 8.28507 23.3007 8.28507 23.0484V22.0209C7.3502 21.865 6.50324 21.4064 5.89174 20.725C5.28023 20.0435 4.94293 19.1824 4.93859 18.2916C4.93859 17.2824 5.36595 16.3144 6.12666 15.6008C6.88738 14.8871 7.91912 14.4862 8.99493 14.4862C10.0707 14.4862 11.1025 14.8871 11.8632 15.6008C12.6239 16.3144 13.0513 17.2824 13.0513 18.2916C13.0491 19.1756 12.719 20.0313 12.1176 20.7118C11.5162 21.3923 10.681 21.8552 9.75549 22.0209V23.0484C9.75549 23.3007 9.86233 23.5427 10.0525 23.7211C10.2427 23.8995 10.5006 23.9997 10.7696 23.9997H15.1301C15.507 23.9997 15.8802 23.9301 16.2284 23.7948C16.5766 23.6595 16.8929 23.4612 17.1594 23.2112C17.4259 22.9612 17.6373 22.6644 17.7815 22.3377C17.9258 22.0111 18 21.661 18 21.3074V12.8404C17.9971 12.2476 17.8326 11.6653 17.5219 11.149C17.2113 10.6328 16.7649 10.1998 16.2253 9.89118ZM6.45972 9.37745V6.99907C6.45972 6.36829 6.72682 5.76334 7.20226 5.3173C7.67771 4.87127 8.32255 4.62069 8.99493 4.62069C9.66731 4.62069 10.3122 4.87127 10.7876 5.3173C11.263 5.76334 11.5301 6.36829 11.5301 6.99907V9.37745H6.45972Z" fill="#DF04DB"/>
</svg>
