<svg width="26" height="22" viewBox="0 0 26 22" fill="none" xmlns="http://www.w3.org/2000/svg">
<path fill-rule="evenodd" clip-rule="evenodd" d="M5.36453 10.7715H7.47334C7.92516 10.7715 8.29365 11.14 8.29365 11.5918V17.1515C8.29365 17.6033 7.92516 17.9718 7.47334 17.9718H5.36453C4.9127 17.9718 4.54422 17.6033 4.54422 17.1515V11.5918C4.54422 11.1401 4.9127 10.7715 5.36453 10.7715ZM24.6691 20.5495H1.96652V0.8149C1.96652 0.46386 1.68193 0.179321 1.33089 0.179321C0.979852 0.179321 0.695312 0.46386 0.695312 0.8149V21.1851C0.695312 21.5362 0.979852 21.8208 1.33089 21.8208H24.6691C25.0201 21.8208 25.3046 21.5362 25.3046 21.1851C25.3047 20.8341 25.0201 20.5495 24.6691 20.5495ZM12.5246 6.33385H14.6334C15.0852 6.33385 15.4537 6.70234 15.4537 7.15416V17.1515C15.4537 17.6034 15.0852 17.9718 14.6334 17.9718H12.5246C12.0728 17.9718 11.7043 17.6034 11.7043 17.1515V7.15416C11.7043 6.70234 12.0728 6.33385 12.5246 6.33385ZM19.6847 2.14484H21.7935C22.2453 2.14484 22.6138 2.51333 22.6138 2.96516V17.1515C22.6138 17.6034 22.2453 17.9718 21.7935 17.9718H19.6847C19.2328 17.9718 18.8644 17.6034 18.8644 17.1515V2.96516C18.8644 2.51333 19.2328 2.14484 19.6847 2.14484Z" fill="#524F67"/>
</svg>
