<svg width="21" height="19" viewBox="0 0 21 19" fill="none" xmlns="http://www.w3.org/2000/svg">
<path d="M20.3213 6.69044L14.0259 5.8236L11.2117 0.418161C11.1348 0.270163 11.0083 0.150355 10.8521 0.0775313C10.4604 -0.105704 9.98432 0.0469921 9.78844 0.418161L6.97423 5.8236L0.678842 6.69044C0.505279 6.71393 0.346592 6.79145 0.225098 6.90891C0.0782178 7.05195 -0.00271976 7.24438 6.97872e-05 7.44392C0.00285933 7.64346 0.0891477 7.83379 0.239975 7.97309L4.79477 12.1804L3.71868 18.1215C3.69345 18.2597 3.70959 18.4018 3.76528 18.5318C3.82096 18.6617 3.91397 18.7743 4.03374 18.8567C4.15352 18.9391 4.29528 18.9881 4.44294 18.9981C4.59059 19.0081 4.73825 18.9787 4.86916 18.9132L10.5001 16.1083L16.1309 18.9132C16.2847 18.9907 16.4632 19.0165 16.6343 18.9883C17.0657 18.9179 17.3558 18.5303 17.2814 18.1215L16.2053 12.1804L20.7601 7.97309C20.8841 7.85798 20.9659 7.70763 20.9907 7.54319C21.0577 7.13208 20.7552 6.75152 20.3213 6.69044Z" fill="#DF04DB"/>
</svg>
