<svg width="55" height="44" viewBox="0 0 55 44" fill="none" xmlns="http://www.w3.org/2000/svg">
<path d="M3.22159 41.169C2.73769 41.169 2.30019 41.0795 1.90909 40.9006C1.51799 40.7183 1.2081 40.4548 0.979403 40.1101C0.754025 39.7654 0.641335 39.3428 0.641335 38.8423C0.641335 38.4115 0.724195 38.0568 0.889915 37.7784C1.05563 37.5 1.27936 37.2796 1.56108 37.1172C1.8428 36.9548 2.15767 36.8321 2.50568 36.7493C2.85369 36.6664 3.20833 36.6035 3.5696 36.5604C4.02699 36.5073 4.3982 36.4643 4.68324 36.4311C4.96828 36.3946 5.17543 36.3366 5.30469 36.2571C5.43395 36.1776 5.49858 36.0483 5.49858 35.8693V35.8345C5.49858 35.4003 5.37595 35.0639 5.13068 34.8253C4.88873 34.5866 4.52746 34.4673 4.04688 34.4673C3.5464 34.4673 3.15199 34.5784 2.86364 34.8004C2.5786 35.0192 2.38139 35.2628 2.27202 35.5312L0.875 35.2131C1.04072 34.7491 1.28267 34.3745 1.60085 34.0895C1.92235 33.8011 2.2919 33.5923 2.70952 33.4631C3.12713 33.3305 3.56629 33.2642 4.02699 33.2642C4.33191 33.2642 4.65507 33.3007 4.99645 33.3736C5.34115 33.4432 5.66264 33.5724 5.96094 33.7614C6.26255 33.9503 6.50947 34.2204 6.7017 34.5717C6.89394 34.9197 6.99006 35.3722 6.99006 35.929V41H5.53835V39.956H5.47869C5.38258 40.1482 5.2384 40.3371 5.04616 40.5227C4.85393 40.7083 4.60701 40.8625 4.3054 40.9851C4.00379 41.1077 3.64252 41.169 3.22159 41.169ZM3.54474 39.9759C3.95573 39.9759 4.30706 39.8946 4.59872 39.7322C4.8937 39.5698 5.11742 39.3577 5.26989 39.0959C5.42566 38.8307 5.50355 38.5473 5.50355 38.2457V37.2614C5.45052 37.3144 5.34777 37.3641 5.19531 37.4105C5.04616 37.4536 4.87547 37.4917 4.68324 37.5249C4.491 37.5547 4.30374 37.5829 4.12145 37.6094C3.93916 37.6326 3.7867 37.6525 3.66406 37.669C3.37571 37.7055 3.11222 37.7668 2.87358 37.853C2.63826 37.9392 2.44934 38.0634 2.30682 38.2259C2.16761 38.3849 2.09801 38.5971 2.09801 38.8622C2.09801 39.2301 2.2339 39.5085 2.50568 39.6974C2.77746 39.883 3.12382 39.9759 3.54474 39.9759ZM12.1866 41.1541C11.4475 41.1541 10.8111 40.9867 10.2775 40.652C9.74722 40.3139 9.33955 39.8482 9.05451 39.255C8.76947 38.6617 8.62695 37.9822 8.62695 37.2166C8.62695 36.4411 8.77279 35.7566 9.06445 35.1634C9.35612 34.5668 9.7671 34.1011 10.2974 33.7663C10.8277 33.4316 11.4525 33.2642 12.1717 33.2642C12.7517 33.2642 13.2688 33.3719 13.7228 33.5874C14.1769 33.7995 14.5431 34.0978 14.8216 34.4822C15.1033 34.8667 15.2707 35.3158 15.3237 35.8295H13.877C13.7974 35.4716 13.6151 35.1634 13.3301 34.9048C13.0484 34.6463 12.6705 34.517 12.1966 34.517C11.7823 34.517 11.4193 34.6264 11.1078 34.8452C10.7995 35.0606 10.5592 35.3688 10.3869 35.7699C10.2145 36.1676 10.1284 36.6383 10.1284 37.1818C10.1284 37.7386 10.2129 38.2192 10.3819 38.6236C10.551 39.0279 10.7896 39.3411 11.0978 39.5632C11.4094 39.7853 11.7756 39.8963 12.1966 39.8963C12.4783 39.8963 12.7335 39.8449 12.9622 39.7422C13.1942 39.6361 13.3881 39.4853 13.5439 39.2898C13.7029 39.0942 13.814 38.8589 13.877 38.5838H15.3237C15.2707 39.0777 15.1099 39.5185 14.8414 39.9062C14.573 40.294 14.2134 40.599 13.7626 40.821C13.3152 41.0431 12.7898 41.1541 12.1866 41.1541ZM20.13 41.1541C19.3909 41.1541 18.7545 40.9867 18.2209 40.652C17.6906 40.3139 17.2829 39.8482 16.9979 39.255C16.7128 38.6617 16.5703 37.9822 16.5703 37.2166C16.5703 36.4411 16.7161 35.7566 17.0078 35.1634C17.2995 34.5668 17.7105 34.1011 18.2408 33.7663C18.7711 33.4316 19.3958 33.2642 20.1151 33.2642C20.6951 33.2642 21.2121 33.3719 21.6662 33.5874C22.1203 33.7995 22.4865 34.0978 22.7649 34.4822C23.0466 34.8667 23.214 35.3158 23.267 35.8295H21.8203C21.7408 35.4716 21.5585 35.1634 21.2734 34.9048C20.9917 34.6463 20.6139 34.517 20.1399 34.517C19.7256 34.517 19.3627 34.6264 19.0511 34.8452C18.7429 35.0606 18.5026 35.3688 18.3303 35.7699C18.1579 36.1676 18.0717 36.6383 18.0717 37.1818C18.0717 37.7386 18.1563 38.2192 18.3253 38.6236C18.4943 39.0279 18.733 39.3411 19.0412 39.5632C19.3527 39.7853 19.719 39.8963 20.1399 39.8963C20.4216 39.8963 20.6768 39.8449 20.9055 39.7422C21.1375 39.6361 21.3314 39.4853 21.4872 39.2898C21.6463 39.0942 21.7573 38.8589 21.8203 38.5838H23.267C23.214 39.0777 23.0533 39.5185 22.7848 39.9062C22.5163 40.294 22.1567 40.599 21.706 40.821C21.2585 41.0431 20.7332 41.1541 20.13 41.1541ZM28.0733 41.1541C27.3574 41.1541 26.7327 40.9901 26.199 40.6619C25.6654 40.3338 25.2511 39.8748 24.9561 39.2848C24.6612 38.6948 24.5137 38.0054 24.5137 37.2166C24.5137 36.4245 24.6612 35.7318 24.9561 35.1385C25.2511 34.5452 25.6654 34.0845 26.199 33.7564C26.7327 33.4283 27.3574 33.2642 28.0733 33.2642C28.7892 33.2642 29.414 33.4283 29.9476 33.7564C30.4812 34.0845 30.8955 34.5452 31.1905 35.1385C31.4855 35.7318 31.633 36.4245 31.633 37.2166C31.633 38.0054 31.4855 38.6948 31.1905 39.2848C30.8955 39.8748 30.4812 40.3338 29.9476 40.6619C29.414 40.9901 28.7892 41.1541 28.0733 41.1541ZM28.0783 39.9062C28.5423 39.9062 28.9268 39.7836 29.2317 39.5384C29.5366 39.2931 29.762 38.9666 29.9078 38.5589C30.057 38.1513 30.1316 37.7022 30.1316 37.2116C30.1316 36.7244 30.057 36.277 29.9078 35.8693C29.762 35.4583 29.5366 35.1286 29.2317 34.88C28.9268 34.6314 28.5423 34.5071 28.0783 34.5071C27.611 34.5071 27.2232 34.6314 26.915 34.88C26.61 35.1286 26.383 35.4583 26.2338 35.8693C26.088 36.277 26.0151 36.7244 26.0151 37.2116C26.0151 37.7022 26.088 38.1513 26.2338 38.5589C26.383 38.9666 26.61 39.2931 26.915 39.5384C27.2232 39.7836 27.611 39.9062 28.0783 39.9062ZM38.1296 37.8331V33.3636H39.6211V41H38.1594V39.6776H38.0799C37.9042 40.0852 37.6225 40.425 37.2347 40.6967C36.8503 40.9652 36.3713 41.0994 35.7979 41.0994C35.3074 41.0994 34.8732 40.9917 34.4954 40.7763C34.1209 40.5575 33.8259 40.2344 33.6104 39.8068C33.3983 39.3793 33.2923 38.8506 33.2923 38.2209V33.3636H34.7788V38.0419C34.7788 38.5623 34.9229 38.9766 35.2113 39.2848C35.4996 39.593 35.8742 39.7472 36.3349 39.7472C36.6133 39.7472 36.89 39.6776 37.1651 39.5384C37.4435 39.3991 37.6739 39.1887 37.8562 38.907C38.0418 38.6252 38.1329 38.2673 38.1296 37.8331ZM43.1049 36.4659V41H41.6184V33.3636H43.0453V34.6065H43.1397C43.3154 34.2022 43.5905 33.8774 43.965 33.6321C44.3429 33.3868 44.8185 33.2642 45.3919 33.2642C45.9122 33.2642 46.368 33.3736 46.7591 33.5923C47.1502 33.8078 47.4534 34.1293 47.6689 34.5568C47.8843 34.9844 47.992 35.513 47.992 36.1428V41H46.5055V36.3217C46.5055 35.7682 46.3613 35.3357 46.073 35.0241C45.7846 34.7093 45.3886 34.5518 44.8848 34.5518C44.5401 34.5518 44.2335 34.6264 43.965 34.7756C43.6999 34.9247 43.4894 35.1435 43.3336 35.4318C43.1812 35.7169 43.1049 36.0616 43.1049 36.4659ZM53.5502 33.3636V34.5568H49.3791V33.3636H53.5502ZM50.4977 31.5341H51.9842V38.7578C51.9842 39.0462 52.0273 39.2633 52.1135 39.4091C52.1996 39.5516 52.3107 39.6494 52.4466 39.7024C52.5858 39.7521 52.7366 39.777 52.899 39.777C53.0183 39.777 53.1227 39.7687 53.2122 39.7521C53.3017 39.7356 53.3713 39.7223 53.421 39.7124L53.6895 40.9403C53.6033 40.9735 53.4806 41.0066 53.3216 41.0398C53.1625 41.0762 52.9636 41.0961 52.725 41.0994C52.3339 41.1061 51.9693 41.0365 51.6312 40.8906C51.2931 40.7448 51.0197 40.5194 50.8109 40.2145C50.6021 39.9096 50.4977 39.5268 50.4977 39.0661V31.5341Z" fill="#524F67"/>
<path d="M18.75 21C18.75 21 17 21 17 19.25C17 17.5 18.75 12.25 27.5 12.25C36.25 12.25 38 17.5 38 19.25C38 21 36.25 21 36.25 21H18.75ZM27.5 10.5C28.8924 10.5 30.2277 9.94688 31.2123 8.96231C32.1969 7.97774 32.75 6.64239 32.75 5.25C32.75 3.85761 32.1969 2.52226 31.2123 1.53769C30.2277 0.553124 28.8924 0 27.5 0C26.1076 0 24.7723 0.553124 23.7877 1.53769C22.8031 2.52226 22.25 3.85761 22.25 5.25C22.25 6.64239 22.8031 7.97774 23.7877 8.96231C24.7723 9.94688 26.1076 10.5 27.5 10.5Z" fill="#524F67"/>
</svg>
