<svg width="19" height="19" viewBox="0 0 19 19" fill="none" xmlns="http://www.w3.org/2000/svg">
<g clip-path="url(#clip0_80_1292)">
<path d="M7.9165 10.2917C8.25649 10.7462 8.69025 11.1223 9.18836 11.3944C9.68647 11.6665 10.2373 11.8284 10.8034 11.8689C11.3696 11.9095 11.9378 11.8278 12.4697 11.6294C13.0015 11.431 13.4844 11.1206 13.8857 10.7192L16.2607 8.34416C16.9817 7.59761 17.3807 6.59773 17.3717 5.55986C17.3627 4.522 16.9464 3.5292 16.2125 2.79529C15.4785 2.06139 14.4857 1.64509 13.4479 1.63607C12.41 1.62706 11.4101 2.02603 10.6636 2.74708L9.30192 4.10083" stroke="white" stroke-width="1.5" stroke-linecap="round" stroke-linejoin="round"/>
<path d="M11.0832 8.70835C10.7433 8.25383 10.3095 7.87775 9.81139 7.6056C9.31328 7.33346 8.76247 7.17163 8.19632 7.13108C7.63016 7.09054 7.06191 7.17222 6.5301 7.37061C5.99829 7.56899 5.51537 7.87942 5.11408 8.28085L2.73908 10.6558C2.01804 11.4024 1.61906 12.4023 1.62808 13.4401C1.6371 14.478 2.05339 15.4708 2.7873 16.2047C3.52121 16.9386 4.51401 17.3549 5.55187 17.3639C6.58973 17.373 7.58961 16.974 8.33616 16.2529L9.68991 14.8992" stroke="white" stroke-width="1.5" stroke-linecap="round" stroke-linejoin="round"/>
</g>
<defs>
<clipPath id="clip0_80_1292">
<rect width="19" height="19" fill="white"/>
</clipPath>
</defs>
</svg>
