<svg width="17" height="16" viewBox="0 0 17 16" fill="none" xmlns="http://www.w3.org/2000/svg">
<path d="M3.32471 2.36666C3.57887 2.36666 3.82263 2.2657 4.00235 2.08597C4.18207 1.90625 4.28304 1.6625 4.28304 1.40833C4.28304 1.15416 4.18207 0.910409 4.00235 0.730686C3.82263 0.550964 3.57887 0.449997 3.32471 0.449997H1.40804C1.15387 0.449997 0.910119 0.550964 0.730397 0.730686C0.550674 0.910409 0.449707 1.15416 0.449707 1.40833V14.825C0.449707 15.0792 0.550674 15.3229 0.730397 15.5026C0.910119 15.6824 1.15387 15.7833 1.40804 15.7833H3.32471C3.57887 15.7833 3.82263 15.6824 4.00235 15.5026C4.18207 15.3229 4.28304 15.0792 4.28304 14.825C4.28304 14.5708 4.18207 14.3271 4.00235 14.1474C3.82263 13.9676 3.57887 13.8667 3.32471 13.8667H2.36637V2.36666H3.32471ZM16.5689 7.56083L13.8664 3.7275C13.7198 3.52089 13.4974 3.38072 13.2478 3.33762C12.9982 3.29452 12.7416 3.352 12.5343 3.4975C12.4306 3.57013 12.3424 3.66256 12.2747 3.76948C12.207 3.87639 12.1611 3.99566 12.1397 4.1204C12.1183 4.24514 12.1218 4.37288 12.1501 4.49625C12.1783 4.61961 12.2308 4.73616 12.3043 4.83916L13.9526 7.15833H6.19971C5.94554 7.15833 5.70179 7.2593 5.52206 7.43902C5.34234 7.61874 5.24137 7.8625 5.24137 8.11666C5.24137 8.37083 5.34234 8.61458 5.52206 8.79431C5.70179 8.97403 5.94554 9.075 6.19971 9.075H13.8664L12.1414 11.375C12.0659 11.4757 12.0109 11.5902 11.9797 11.7122C11.9485 11.8341 11.9415 11.9609 11.9593 12.0855C11.9771 12.2101 12.0193 12.33 12.0834 12.4383C12.1475 12.5466 12.2324 12.6412 12.333 12.7167C12.4989 12.8411 12.7007 12.9083 12.908 12.9083C13.0568 12.9083 13.2036 12.8737 13.3366 12.8072C13.4697 12.7406 13.5854 12.644 13.6747 12.525L16.5497 8.69166C16.6724 8.52958 16.7404 8.33266 16.7439 8.12938C16.7473 7.92609 16.686 7.72698 16.5689 7.56083Z" fill="#DF04DB"/>
</svg>
