<svg width="18" height="20" viewBox="0 0 18 20" fill="none" xmlns="http://www.w3.org/2000/svg">
<path d="M1.28187 20H16.7181C17.0581 20 17.3842 19.8683 17.6245 19.6339C17.8649 19.3995 18 19.0815 18 18.75V1.25C18 0.918479 17.8649 0.600537 17.6245 0.366117C17.3842 0.131696 17.0581 0 16.7181 0L1.28187 0C0.941896 0 0.615848 0.131696 0.375451 0.366117C0.135054 0.600537 0 0.918479 0 1.25V18.75C0 19.0815 0.135054 19.3995 0.375451 19.6339C0.615848 19.8683 0.941896 20 1.28187 20ZM8.33215 3.75H13.5135C13.6834 3.75 13.8465 3.81585 13.9667 3.93306C14.0869 4.05027 14.1544 4.20924 14.1544 4.375C14.1544 4.54076 14.0869 4.69973 13.9667 4.81694C13.8465 4.93415 13.6834 5 13.5135 5H8.33215C8.16216 5 7.99914 4.93415 7.87894 4.81694C7.75874 4.69973 7.69121 4.54076 7.69121 4.375C7.69121 4.20924 7.75874 4.05027 7.87894 3.93306C7.99914 3.81585 8.16216 3.75 8.33215 3.75ZM4.48654 7.5H13.5135C13.6834 7.5 13.8465 7.56585 13.9667 7.68306C14.0869 7.80027 14.1544 7.95924 14.1544 8.125C14.1544 8.29076 14.0869 8.44973 13.9667 8.56694C13.8465 8.68415 13.6834 8.75 13.5135 8.75H4.48654C4.31655 8.75 4.15353 8.68415 4.03333 8.56694C3.91313 8.44973 3.84561 8.29076 3.84561 8.125C3.84561 7.95924 3.91313 7.80027 4.03333 7.68306C4.15353 7.56585 4.31655 7.5 4.48654 7.5ZM4.48654 11.25H13.5135C13.6834 11.25 13.8465 11.3158 13.9667 11.4331C14.0869 11.5503 14.1544 11.7092 14.1544 11.875C14.1544 12.0408 14.0869 12.1997 13.9667 12.3169C13.8465 12.4342 13.6834 12.5 13.5135 12.5H4.48654C4.31655 12.5 4.15353 12.4342 4.03333 12.3169C3.91313 12.1997 3.84561 12.0408 3.84561 11.875C3.84561 11.7092 3.91313 11.5503 4.03333 11.4331C4.15353 11.3158 4.31655 11.25 4.48654 11.25ZM4.48654 15H13.5135C13.6834 15 13.8465 15.0658 13.9667 15.1831C14.0869 15.3003 14.1544 15.4592 14.1544 15.625C14.1544 15.7908 14.0869 15.9497 13.9667 16.0669C13.8465 16.1842 13.6834 16.25 13.5135 16.25H4.48654C4.31655 16.25 4.15353 16.1842 4.03333 16.0669C3.91313 15.9497 3.84561 15.7908 3.84561 15.625C3.84561 15.4592 3.91313 15.3003 4.03333 15.1831C4.15353 15.0658 4.31655 15 4.48654 15Z" fill="#DF04DB"/>
</svg>
