<svg width="38" height="44" viewBox="0 0 38 44" fill="none" xmlns="http://www.w3.org/2000/svg">
<path d="M2.4858 36.4659V41H0.99929V30.8182H2.46591V34.6065H2.56037C2.73935 34.1955 3.01278 33.8691 3.38068 33.6271C3.74858 33.3852 4.22917 33.2642 4.82244 33.2642C5.34612 33.2642 5.8035 33.3719 6.1946 33.5874C6.58902 33.8028 6.89394 34.1243 7.10938 34.5518C7.32812 34.9761 7.4375 35.5064 7.4375 36.1428V41H5.95099V36.3217C5.95099 35.7616 5.80682 35.3274 5.51847 35.0192C5.23011 34.7076 4.82907 34.5518 4.31534 34.5518C3.96402 34.5518 3.64915 34.6264 3.37074 34.7756C3.09564 34.9247 2.87855 35.1435 2.71946 35.4318C2.56368 35.7169 2.4858 36.0616 2.4858 36.4659ZM12.6378 41.1541C11.9219 41.1541 11.2971 40.9901 10.7635 40.6619C10.2299 40.3338 9.81558 39.8748 9.5206 39.2848C9.22562 38.6948 9.07812 38.0054 9.07812 37.2166C9.07812 36.4245 9.22562 35.7318 9.5206 35.1385C9.81558 34.5452 10.2299 34.0845 10.7635 33.7564C11.2971 33.4283 11.9219 33.2642 12.6378 33.2642C13.3537 33.2642 13.9785 33.4283 14.5121 33.7564C15.0457 34.0845 15.46 34.5452 15.755 35.1385C16.05 35.7318 16.1974 36.4245 16.1974 37.2166C16.1974 38.0054 16.05 38.6948 15.755 39.2848C15.46 39.8748 15.0457 40.3338 14.5121 40.6619C13.9785 40.9901 13.3537 41.1541 12.6378 41.1541ZM12.6428 39.9062C13.1068 39.9062 13.4912 39.7836 13.7962 39.5384C14.1011 39.2931 14.3265 38.9666 14.4723 38.5589C14.6214 38.1513 14.696 37.7022 14.696 37.2116C14.696 36.7244 14.6214 36.277 14.4723 35.8693C14.3265 35.4583 14.1011 35.1286 13.7962 34.88C13.4912 34.6314 13.1068 34.5071 12.6428 34.5071C12.1754 34.5071 11.7876 34.6314 11.4794 34.88C11.1745 35.1286 10.9474 35.4583 10.7983 35.8693C10.6525 36.277 10.5795 36.7244 10.5795 37.2116C10.5795 37.7022 10.6525 38.1513 10.7983 38.5589C10.9474 38.9666 11.1745 39.2931 11.4794 39.5384C11.7876 39.7836 12.1754 39.9062 12.6428 39.9062ZM17.8567 41V33.3636H19.2836V34.6065H19.378C19.5371 34.1856 19.7973 33.8575 20.1586 33.6222C20.5198 33.3835 20.9524 33.2642 21.4561 33.2642C21.9666 33.2642 22.3941 33.3835 22.7388 33.6222C23.0868 33.8608 23.3437 34.1889 23.5094 34.6065H23.589C23.7712 34.1989 24.0613 33.8741 24.459 33.6321C24.8567 33.3868 25.3307 33.2642 25.8809 33.2642C26.5736 33.2642 27.1387 33.4813 27.5762 33.9155C28.017 34.3497 28.2374 35.0043 28.2374 35.8793V41H26.7509V36.0185C26.7509 35.5014 26.61 35.1269 26.3283 34.8949C26.0466 34.6629 25.7102 34.5469 25.3191 34.5469C24.8352 34.5469 24.459 34.696 24.1905 34.9943C23.9221 35.2893 23.7878 35.6688 23.7878 36.1328V41H22.3063V35.924C22.3063 35.5097 22.177 35.1766 21.9185 34.9247C21.66 34.6728 21.3236 34.5469 20.9093 34.5469C20.6275 34.5469 20.3674 34.6214 20.1287 34.7706C19.8934 34.9164 19.7028 35.1203 19.557 35.3821C19.4145 35.6439 19.3432 35.9472 19.3432 36.2919V41H17.8567ZM33.521 41.1541C32.7686 41.1541 32.1206 40.9934 31.5771 40.6719C31.0368 40.3471 30.6192 39.8913 30.3242 39.3047C30.0326 38.7147 29.8867 38.0237 29.8867 37.2315C29.8867 36.4493 30.0326 35.7599 30.3242 35.1634C30.6192 34.5668 31.0302 34.1011 31.5572 33.7663C32.0875 33.4316 32.7073 33.2642 33.4165 33.2642C33.8474 33.2642 34.265 33.3355 34.6694 33.478C35.0737 33.6205 35.4367 33.8442 35.7582 34.1491C36.0797 34.4541 36.3332 34.8501 36.5188 35.3374C36.7044 35.8213 36.7972 36.4096 36.7972 37.1023V37.6293H30.7269V36.5156H35.3406C35.3406 36.1245 35.261 35.7782 35.1019 35.4766C34.9428 35.1716 34.7191 34.9313 34.4308 34.7557C34.1457 34.58 33.811 34.4922 33.4265 34.4922C33.0089 34.4922 32.6443 34.5949 32.3327 34.8004C32.0245 35.0026 31.7859 35.2678 31.6168 35.5959C31.4511 35.9207 31.3683 36.2737 31.3683 36.6548V37.5249C31.3683 38.0353 31.4577 38.4695 31.6367 38.8274C31.819 39.1854 32.0726 39.4588 32.3974 39.6477C32.7222 39.8333 33.1017 39.9261 33.5359 39.9261C33.8176 39.9261 34.0745 39.8864 34.3065 39.8068C34.5385 39.724 34.739 39.6013 34.908 39.4389C35.0771 39.2765 35.2063 39.076 35.2958 38.8374L36.7028 39.0909C36.5901 39.5052 36.3879 39.8681 36.0962 40.1797C35.8079 40.4879 35.445 40.7282 35.0075 40.9006C34.5733 41.0696 34.0778 41.1541 33.521 41.1541Z" fill="white"/>
<path fill-rule="evenodd" clip-rule="evenodd" d="M25.277 21.5053H23.353C22.251 21.4793 21.401 20.6143 21.401 19.5363V16.4603C21.401 16.0913 21.094 15.7913 20.717 15.7913H17.831C17.462 15.7933 17.157 16.0943 17.157 16.4603V19.5263C17.157 19.6013 17.147 19.6733 17.126 19.7413C17.018 20.7313 16.172 21.5053 15.147 21.5053H13.223C10.894 21.5053 9 19.6263 9 17.3173V8.60325C9.01 7.60925 9.468 6.69925 10.259 6.10025L16.794 0.85525C18.233 -0.28475 20.238 -0.28475 21.674 0.85325L28.256 6.10325C29.029 6.69225 29.487 7.60025 29.5 8.58225V17.3173C29.5 19.6263 27.606 21.5053 25.277 21.5053Z" fill="white"/>
</svg>
