<svg width="21" height="22" viewBox="0 0 21 22" fill="none" xmlns="http://www.w3.org/2000/svg">
<path fill-rule="evenodd" clip-rule="evenodd" d="M16.277 21.5053H14.353C13.251 21.4793 12.401 20.6143 12.401 19.5363V16.4603C12.401 16.0913 12.094 15.7913 11.717 15.7913H8.831C8.462 15.7933 8.157 16.0943 8.157 16.4603V19.5263C8.157 19.6013 8.147 19.6733 8.126 19.7413C8.018 20.7313 7.172 21.5053 6.147 21.5053H4.223C1.894 21.5053 0 19.6263 0 17.3173V8.60325C0.01 7.60925 0.468 6.69925 1.259 6.10025L7.794 0.85525C9.233 -0.28475 11.238 -0.28475 12.674 0.85325L19.256 6.10325C20.029 6.69225 20.487 7.60025 20.5 8.58225V17.3173C20.5 19.6263 18.606 21.5053 16.277 21.5053Z" fill="white"/>
</svg>
