<svg width="28" height="28" viewBox="0 0 28 28" fill="none" xmlns="http://www.w3.org/2000/svg">
<circle cx="14" cy="14" r="14" fill="#D9D9D9" fill-opacity="0.07"/>
<path d="M9.50024 8.66667C9.72126 8.66667 9.93322 8.57887 10.0895 8.42259C10.2458 8.26631 10.3336 8.05435 10.3336 7.83333C10.3336 7.61232 10.2458 7.40036 10.0895 7.24408C9.93322 7.0878 9.72126 7 9.50024 7H7.83358C7.61256 7 7.4006 7.0878 7.24432 7.24408C7.08804 7.40036 7.00024 7.61232 7.00024 7.83333V19.5C7.00024 19.721 7.08804 19.933 7.24432 20.0893C7.4006 20.2455 7.61256 20.3333 7.83358 20.3333H9.50024C9.72126 20.3333 9.93322 20.2455 10.0895 20.0893C10.2458 19.933 10.3336 19.721 10.3336 19.5C10.3336 19.279 10.2458 19.067 10.0895 18.9107C9.93322 18.7545 9.72126 18.6667 9.50024 18.6667H8.66691V8.66667H9.50024ZM21.0169 13.1833L18.6669 9.85C18.5395 9.67034 18.3461 9.54845 18.129 9.51097C17.912 9.4735 17.6889 9.52348 17.5086 9.65C17.4185 9.71316 17.3417 9.79354 17.2828 9.8865C17.2239 9.97947 17.184 10.0832 17.1654 10.1917C17.1469 10.3001 17.1499 10.4112 17.1745 10.5185C17.1991 10.6258 17.2446 10.7271 17.3086 10.8167L18.7419 12.8333H12.0002C11.7792 12.8333 11.5673 12.9211 11.411 13.0774C11.2547 13.2337 11.1669 13.4457 11.1669 13.6667C11.1669 13.8877 11.2547 14.0996 11.411 14.2559C11.5673 14.4122 11.7792 14.5 12.0002 14.5H18.6669L17.1669 16.5C17.1013 16.5875 17.0535 16.6872 17.0263 16.7932C16.9992 16.8992 16.9931 17.0095 17.0086 17.1179C17.0241 17.2262 17.0608 17.3304 17.1165 17.4246C17.1723 17.5187 17.246 17.601 17.3336 17.6667C17.4778 17.7749 17.6533 17.8333 17.8336 17.8333C17.9629 17.8333 18.0905 17.8032 18.2063 17.7454C18.322 17.6875 18.4226 17.6035 18.5002 17.5L21.0002 14.1667C21.107 14.0257 21.1661 13.8545 21.1691 13.6777C21.1721 13.501 21.1188 13.3278 21.0169 13.1833Z" fill="white"/>
</svg>
